HIERARCHY
ROOT joint_Root
{
	OFFSET 0.0 0.0 0.0
	CHANNELS 6 Xposition Yposition Zposition Zrotation Xrotation Yrotation 
	JOINT Hips
	{
		OFFSET 4.5925 91.4895 -427.239
		CHANNELS 6 Xposition Yposition Zposition Zrotation Xrotation Yrotation 
		JOINT Spine
		{
			OFFSET 15.7357 0.0 0.0
			CHANNELS 6 Xposition Yposition Zposition Zrotation Xrotation Yrotation 
			JOINT Chest
			{
				OFFSET 8.98455 -0.406207 0.0
				CHANNELS 6 Xposition Yposition Zposition Zrotation Xrotation Yrotation 
				JOINT Neck
				{
					OFFSET 16.3773 0.0 0.0
					CHANNELS 6 Xposition Yposition Zposition Zrotation Xrotation Yrotation 
					JOINT Head
					{
						OFFSET 6.45672 0.0 0.0
						CHANNELS 6 Xposition Yposition Zposition Zrotation Xrotation Yrotation 
						End Site
						{
							OFFSET 0.0 0.0 0.0
						}
					}
				}
				JOINT Shoulder_L
				{
					OFFSET 12.9942 -0.242716 4.98039
					CHANNELS 6 Xposition Yposition Zposition Zrotation Xrotation Yrotation 
					JOINT UpperArm_L
					{
						OFFSET 5.34809 0.0 0.0
						CHANNELS 6 Xposition Yposition Zposition Zrotation Xrotation Yrotation 
						JOINT LowerArm_L
						{
							OFFSET 24.3286 1.87007e-05 0.0
							CHANNELS 6 Xposition Yposition Zposition Zrotation Xrotation Yrotation 
							JOINT Hand_L
							{
								OFFSET 22.2916 0.0 0.0
								CHANNELS 6 Xposition Yposition Zposition Zrotation Xrotation Yrotation 
								End Site
								{
									OFFSET 0.0 0.0 0.0
								}
							}
						}
					}
				}
				JOINT Shoulder_R
				{
					OFFSET 12.9945 -0.242716 -4.98039
					CHANNELS 6 Xposition Yposition Zposition Zrotation Xrotation Yrotation 
					JOINT UpperArm_R
					{
						OFFSET -5.34813 0.0 0.0
						CHANNELS 6 Xposition Yposition Zposition Zrotation Xrotation Yrotation 
						JOINT LowerArm_R
						{
							OFFSET -24.3289 0.000322201 0.0
							CHANNELS 6 Xposition Yposition Zposition Zrotation Xrotation Yrotation 
							JOINT Hand_R
							{
								OFFSET -22.2915 -0.000108084 0.0
								CHANNELS 6 Xposition Yposition Zposition Zrotation Xrotation Yrotation 
								End Site
								{
									OFFSET 0.0 0.0 0.0
								}
							}
						}
					}
				}
			}
		}
		JOINT UpperLeg_L
		{
			OFFSET -2.19248 -6.46944 0.0
			CHANNELS 6 Xposition Yposition Zposition Zrotation Xrotation Yrotation 
			JOINT LowerLeg_L
			{
				OFFSET 39.0811 0.0 -1.23785e-05
				CHANNELS 6 Xposition Yposition Zposition Zrotation Xrotation Yrotation 
				JOINT Foot_L
				{
					OFFSET 40.9854 0.0 -1.26872e-05
					CHANNELS 6 Xposition Yposition Zposition Zrotation Xrotation Yrotation 
					JOINT Toes_L
					{
						OFFSET 11.7543 0.0 0.0
						CHANNELS 6 Xposition Yposition Zposition Zrotation Xrotation Yrotation 
						End Site
						{
							OFFSET 0.0 0.0 0.0
						}
					}
				}
			}
		}
		JOINT UpperLeg_R
		{
			OFFSET -2.19251 6.46944 0.0
			CHANNELS 6 Xposition Yposition Zposition Zrotation Xrotation Yrotation 
			JOINT LowerLeg_R
			{
				OFFSET -39.0811 -0.00228153 -0.0401928
				CHANNELS 6 Xposition Yposition Zposition Zrotation Xrotation Yrotation 
				JOINT Foot_R
				{
					OFFSET -40.9854 0.0 0.0
					CHANNELS 6 Xposition Yposition Zposition Zrotation Xrotation Yrotation 
					JOINT Toes_R
					{
						OFFSET -11.7543 0.0 0.0
						CHANNELS 6 Xposition Yposition Zposition Zrotation Xrotation Yrotation 
						End Site
						{
							OFFSET 0.0 0.0 0.0
						}
					}
				}
			}
		}
	}
}
MOTION
Frames:	5
Frame Time:	0.0333333
0.000000 0.000000 0.000000 0.000000 0.000000 -0.000000 -2.758380 90.151300 -3.381480 90.224500 0.723441 9.895840 15.735700 0.000005 -0.000001 90.140000 76.270200 -88.663900 8.984550 -0.406207 -0.000000 19.692400 0.218518 2.922890 16.377300 -0.000001 -0.000001 3.747410 -3.217940 4.142910 6.456720 -0.000001 -0.000000 -11.204100 -3.248010 7.717600 12.994200 -0.242716 4.980390 -90.471500 1.663440 -74.172800 5.348090 -0.000007 -0.000001 -80.272200 -26.087600 -65.513000 24.328600 0.000019 0.000005 41.587900 -12.892800 -104.113000 22.291600 -0.000001 0.000005 26.438900 4.892190 9.533250 12.994500 -0.242716 -4.980390 89.126500 10.321900 -85.136300 -5.348130 -0.000001 -0.000004 -52.692700 30.398600 -27.609100 -24.328900 0.000322 -0.000009 1.452860 3.966180 -20.150600 -22.291500 -0.000108 -0.000004 15.881900 5.405510 -3.117350 -2.192480 -6.469440 -0.000000 -174.012000 -12.680800 -5.120730 39.081100 -0.000007 -0.000012 -0.227603 0.331448 34.477500 40.985400 -0.000006 -0.000013 -0.563101 7.282780 -68.972700 11.754300 -0.000000 0.000003 -0.000156 -0.001505 -16.634700 -2.192510 6.469440 -0.000001 175.426000 23.025400 176.613000 -39.081100 -0.002282 -0.040193 -0.121786 0.177814 35.123100 -40.985400 0.000008 0.000006 7.081150 10.260800 -72.319300 -11.754300 -0.000006 -0.000006 -0.001715 -0.025084 -17.593100
0.000000 0.000000 0.000000 0.000000 0.000000 -0.000000 -2.755180 90.148300 -3.386780 90.231800 0.958483 9.957350 15.735700 0.000005 -0.000001 90.112600 76.249700 -88.625200 8.984550 -0.406207 -0.000000 19.733500 0.207397 2.947300 16.377300 -0.000001 -0.000001 3.717530 -3.203520 4.098680 6.456720 -0.000001 -0.000000 -11.260000 -3.223200 7.731580 12.994200 -0.242716 4.980390 -90.464000 1.638750 -74.189800 5.348090 -0.000007 -0.000001 -78.788000 -24.942000 -65.423600 24.328600 0.000019 0.000005 41.673600 -13.065400 -104.250000 22.291600 -0.000001 0.000005 26.359200 4.892140 9.533990 12.994500 -0.242716 -4.980390 89.124600 10.351600 -85.139500 -5.348130 -0.000001 -0.000004 -52.648800 30.447500 -27.608900 -24.328900 0.000322 -0.000009 1.415280 3.883330 -20.056000 -22.291500 -0.000108 -0.000004 15.986000 5.403500 -3.051680 -2.192480 -6.469440 -0.000000 -174.029000 -12.567100 -5.103310 39.081100 -0.000007 -0.000012 -0.227820 0.331593 34.491300 40.985400 -0.000006 -0.000013 -0.520283 7.410470 -68.960000 11.754300 -0.000000 0.000003 -0.000146 -0.001423 -16.631700 -2.192510 6.469440 -0.000001 175.346000 23.199100 176.706000 -39.081100 -0.002282 -0.040193 -0.119199 0.174108 35.127600 -40.985400 0.000008 0.000006 7.009470 10.255400 -72.316300 -11.754300 -0.000006 -0.000006 -0.001563 -0.023099 -17.512400
0.000000 0.000000 0.000000 0.000000 0.000000 -0.000000 -2.754960 90.142800 -3.398670 90.214300 1.147830 10.016600 15.735700 0.000005 -0.000001 90.085500 76.226100 -88.574500 8.984550 -0.406207 -0.000000 19.781000 0.197860 2.996520 16.377300 -0.000001 -0.000001 3.687250 -3.184930 4.070510 6.456720 -0.000001 -0.000000 -11.304700 -3.180670 7.745430 12.994200 -0.242716 4.980390 -90.465600 1.645600 -74.198300 5.348090 -0.000007 -0.000001 -77.019500 -23.648700 -65.353700 24.328600 0.000019 0.000005 41.375200 -13.095600 -104.425000 22.291600 -0.000001 0.000005 26.233300 4.908590 9.205910 12.994500 -0.242716 -4.980390 89.122800 10.373400 -85.139700 -5.348130 -0.000001 -0.000004 -52.606000 30.458300 -27.612900 -24.328900 0.000322 -0.000009 1.412510 3.872180 -20.072900 -22.291500 -0.000108 -0.000004 15.948900 5.403450 -3.049970 -2.192480 -6.469440 -0.000000 -174.023000 -12.465400 -5.105190 39.081100 -0.000007 -0.000012 -0.226784 0.329570 34.533100 40.985400 -0.000006 -0.000013 -0.489558 7.491140 -68.955600 11.754300 -0.000000 0.000003 -0.000157 -0.001510 -16.634900 -2.192510 6.469440 -0.000001 175.309000 23.342800 176.786000 -39.081100 -0.002282 -0.040193 -0.118166 0.172503 35.148900 -40.985400 0.000008 0.000006 7.080070 10.186000 -72.352500 -11.754300 -0.000006 -0.000006 -0.001750 -0.025538 -17.611600
0.000000 0.000000 0.000000 0.000000 0.000000 -0.000000 -2.740760 90.133000 -3.413110 90.207100 1.282660 10.071800 15.735700 0.000005 -0.000001 90.032900 76.204300 -88.510800 8.984550 -0.406207 -0.000000 19.824800 0.174851 3.022710 16.377300 -0.000001 -0.000001 3.635490 -3.177880 4.066250 6.456720 -0.000001 -0.000000 -11.277300 -3.125930 7.761090 12.994200 -0.242716 4.980390 -90.457700 1.621260 -74.234000 5.348090 -0.000007 -0.000001 -75.182300 -22.335600 -65.347100 24.328600 0.000019 0.000005 41.581100 -13.252600 -104.487000 22.291600 -0.000001 0.000005 25.885700 4.914510 9.086960 12.994500 -0.242716 -4.980390 89.125500 10.372400 -85.154300 -5.348130 -0.000001 -0.000004 -52.697900 30.374500 -27.617300 -24.328900 0.000322 -0.000009 1.474390 4.040280 -20.080800 -22.291500 -0.000108 -0.000004 15.904600 5.404350 -3.079290 -2.192480 -6.469440 -0.000000 -174.029000 -12.418100 -5.112410 39.081100 -0.000007 -0.000012 -0.226562 0.328503 34.593600 40.985400 -0.000006 -0.000013 -0.448535 7.558080 -68.965200 11.754300 -0.000000 0.000003 -0.000153 -0.001477 -16.633700 -2.192510 6.469440 -0.000001 175.242000 23.444200 176.842000 -39.081100 -0.002282 -0.040193 -0.125187 0.182312 35.172900 -40.985400 0.000008 0.000006 6.903510 10.215800 -72.320600 -11.754300 -0.000006 -0.000006 -0.001647 -0.024209 -17.557500
0.000000 0.000000 0.000000 0.000000 0.000000 -0.000000 -2.729550 90.133400 -3.436080 90.193500 1.373400 10.155700 15.735700 0.000005 -0.000001 89.963500 76.173500 -88.434600 8.984550 -0.406207 -0.000000 19.886900 0.143679 3.041950 16.377300 -0.000001 -0.000001 3.616560 -3.175110 4.048020 6.456720 -0.000001 -0.000000 -11.258000 -3.107190 7.829100 12.994200 -0.242716 4.980390 -90.452400 1.602960 -74.238400 5.348090 -0.000007 -0.000001 -73.325400 -20.978400 -65.473200 24.328600 0.000019 0.000005 41.683200 -13.265600 -104.451000 22.291600 -0.000001 0.000005 25.897100 4.915830 9.060580 12.994500 -0.242716 -4.980390 89.123300 10.388000 -85.149200 -5.348130 -0.000001 -0.000004 -52.731700 30.381500 -27.646400 -24.328900 0.000322 -0.000009 1.467590 4.001730 -20.172300 -22.291500 -0.000108 -0.000004 15.882100 5.405660 -3.122440 -2.192480 -6.469440 -0.000000 -174.012000 -12.371300 -5.057120 39.081100 -0.000007 -0.000012 -0.227258 0.329406 34.602300 40.985400 -0.000006 -0.000013 -0.417928 7.633880 -68.954100 11.754300 -0.000000 0.000003 -0.000149 -0.001441 -16.632300 -2.192510 6.469440 -0.000001 175.203000 23.537900 176.934000 -39.081100 -0.002282 -0.040193 -0.119381 0.174047 35.176900 -40.985400 0.000008 0.000006 7.001810 10.185600 -72.338300 -11.754300 -0.000006 -0.000006 -0.001642 -0.024135 -17.554500
